M48
;FILE_FORMAT=2:4
INCH,LZ
FMAT,2
ICI,OFF
;TYPE=PLATED
T1C.00984
T2C.02756
%
M72
G90
G93X0Y0
T1C.00984F0S0
X100984Y097569
X100728Y097589
X100472Y097628
X100089Y097677
X099833Y097707
X099577Y097736
X099321Y097766
X099301Y098022
X100816Y099601
X100541Y099621
X101259Y099778
X100984Y099808
X100708Y099838
X100433Y099867
X104055Y10065
X104144Y100413
X102313Y100404
X102274Y100148
X102846Y099593
X108691Y098317
X106388Y098809
X105522Y098878
X105482Y099134
X107352Y099478
X107037Y099557
X107303Y100984
X11061Y102913
X111063Y102677
X110994Y102141
X111574Y101895
X110216Y101471
X111378Y09971
X111378Y099454
X111654Y09938
X11127Y098868
X110787Y098504
X110748Y098164
X109646Y097293
X110167Y097052
X110629Y096776
X109626Y096722
X111003Y096629
X111574Y096511
X111309Y096511
X112903Y096422
X112332Y096422
X113228Y09658
X114005Y097042
X114015Y097298
X112637Y097584
X112323Y097933
X112834Y09908
X114301Y099089
X112903Y099395
X112992Y099631
X113228Y099729
X112913Y099877
X112224Y099877
X114261Y100704
X113927Y100822
X113385Y101038
X113061Y101147
X115364Y101471
X114606Y100517
X115502Y099503
X115807Y099404
X116624Y09905
X115669Y098952
X116801Y09844
X115659Y098282
X115659Y098026
X114566Y09779
X115442Y097771
X116506Y097569
X115276Y097057
X117559Y096422
X118356Y096427
X118031Y096442
X117952Y097151
X117696Y097151
X119173Y09716
X118524Y097224
X118533Y09812
X116879Y098765
X116968Y099001
X118887Y099089
X117057Y099237
X118759Y099414
X11746Y099838
X117441Y100492
X118799Y100896
X118868Y101152
X121368Y101555
X121053Y101516
X120768Y101388
X120404Y10126
X119823Y101152
X119577Y101093
X119321Y101043
X121112Y100148
X120856Y099833
X120581Y099764
X120305Y099695
X12003Y099626
X1206Y097756
X120236Y097623
X119606Y097436
X120994Y097131
X121762Y096604
X121053Y096575
X119596Y096457
X124055Y097564
X12309Y097889
X122165Y097972
X121909Y097982
X123425Y098066
X123947Y098297
X123622Y098396
X122972Y099026
X123937Y099237
X122785Y09937
X122963Y099567
X122628Y099596
X124222Y099759
X123661Y100098
X122047Y100236
X124085Y101093
X12374Y101801
X124144Y10188
X122588Y101904
X123829Y102175
X124202Y102436
X123809Y1025
X124075Y102825
X124754Y105679
X126634Y105187
X124902Y105069
X125669Y10498
X125738Y104724
X124813Y104616
X124921Y104154
X124409Y10374
X124449Y103169
X125167Y10311
X124458Y102013
X12563Y101909
X126781Y10186
X126732Y101373
X124527Y101353
X124813Y101348
X12496Y100556
X125216Y100536
X126023Y100389
X124724Y100221
X124852Y099089
X126299Y09846
X126604Y09846
X125905Y098302
X125413Y097652
X124724Y097564
X129212Y097357
X128385Y097357
X128661Y097357
X128937Y097357
X126919Y09843
X127411Y099975
X127923Y100172
X127598Y100832
X126988Y101383
X12812Y101737
X128011Y102023
X128316Y102131
X128986Y102987
X128986Y103312
X127815Y103401
X127579Y103632
X127982Y103661
X128917Y103696
X12752Y103927
X127539Y10439
X128031Y104523
X128356Y104601
X127018Y105295
X128051Y106014
X128041Y106368
X131446Y106836
X130059Y106826
X12935Y106658
X129911Y10656
X130787Y105418
X131456Y105379
X131122Y105339
X129439Y104887
X130541Y104877
X130452Y104591
X129694Y10403
X129675Y10373
X130384Y103701
X129724Y102771
X130148Y101742
X130482Y100497
X130767Y1003
X131043Y100162
X13124Y099936
X131525Y099828
X130236Y099247
X131614Y099247
X131338Y099247
X130315Y097357
X130866Y097357
X13059Y097357
X131141Y097357
X130039Y097357
X131692Y097357
X129763Y097357
X129488Y097357
X131417Y097357
X132795Y097357
X132519Y097357
X132244Y097357
X131968Y097357
X13307Y097357
X133346Y097397
X133897Y097397
X133622Y097397
X133976Y097672
X134242Y097741
X133927Y098046
X133139Y098302
X133937Y098351
X133946Y098715
X133927Y098991
X133563Y099227
X133818Y099227
X131889Y099247
X132165Y099247
X133277Y099247
X132716Y099247
X132992Y099247
X13244Y099247
X133701Y099531
X133891Y099774
X1325Y100059
X133415Y100443
X133396Y100778
X133907Y101211
X132677Y101388
X13376Y101476
X13187Y10185
X134144Y102569
X134016Y102835
X133632Y104242
X133011Y104532
X132775Y104621
X134656Y103248
X135463Y102402
X136358Y10155
X13505Y101104
X134785Y101001
X135506Y100749
X135059Y10061
X135773Y100419
X135236Y100315
X136034Y100239
X136281Y100062
X134849Y099801
X135794Y099572
X135491Y09925
X135493Y098768
X134689Y09841
X134783Y098125
X136211Y097963
X134763Y097869
X134537Y097751
T2C.02756F197S55
X132343Y104909
X13283Y105022
X132231Y105396
X132718Y105509
X132118Y105884
X132605Y105996
X132006Y106371
X132493Y106483
X131893Y106858
X13238Y10697
M30
