M48
;FILE_FORMAT=2:4
INCH,LZ
FMAT,2
ICI,OFF
;TYPE=PLATED
T1C.00984
%
M72
G90
G93X0Y0
T1C.00984F0S0
X101388Y097559
X101565Y097785
X102343Y098297
X103337Y098307
X103622Y098366
X10128Y098386
X103179Y098514
X103435Y098543
X103671Y098652
X102067Y100669
X1019Y100915
X101565Y100945
X101319Y101004
X101752Y101122
X102008Y101152
X10748Y1019
X107923Y101053
X103858Y098465
X104528Y098455
X104508Y098179
X10438Y097608
X111889Y096639
X111899Y097908
X111122Y097908
X111643Y097908
X111378Y097908
X113681Y098804
X117795Y100418
X117077Y100413
X118031Y10033
X1156Y099247
X116427Y098041
X117066Y097426
X116811Y097426
X11874Y097402
X119911Y098179
X119193Y09939
X119311Y099675
X122952Y100566
X12311Y101225
X124508Y099902
X126072Y099345
X125876Y099099
X125885Y098834
X123956Y098696
X125885Y098568
X127018Y097283
X12811Y097367
X128336Y098302
X128592Y098302
X126939Y098775
X126899Y099099
X126722Y099355
X126387Y099355
X127707Y099961
X127913Y1006
X127977Y100881
X128095Y101142
X128238Y101368
X128395Y101594
X126525Y101708
X128567Y101816
X1287Y102052
X126909Y102908
X126909Y103174
X128464Y105133
X127234Y106161
X131122Y104744
X130728Y103533
X128986Y102116
X129636Y102037
X129222Y101968
X129458Y101821
X129705Y101683
X129931Y101526
X130167Y101378
X130275Y101127
X130128Y100886
X130088Y100595
X128848Y100566
X12996Y100339
X129813Y100103
X129596Y099906
X12933Y099847
X129035Y099778
X129685Y099247
X129409Y099247
X131063Y099247
X130511Y099247
X130787Y099247
X12996Y099247
X130708Y098302
X130315Y098302
X129133Y098302
X128858Y098302
X130049Y098302
X129222Y097652
X131801Y098022
X132519Y098302
X132844Y098302
X132126Y098302
X131771Y098302
X131771Y098607
X131841Y100335
X132992Y101767
X13313Y102313
X133425Y102707
X132598Y107352
X134331Y101181
X135472Y099606
X135197Y099606
X135492Y098445
X135177Y098425
X136437Y097584
M30
