M48
;FILE_FORMAT=2:4
INCH,LZ
FMAT,2
ICI,OFF
;TYPE=PLATED
T1C.00984
%
M72
G90
G93X0Y0
T1C.00984F0S0
X098947Y097776
X099118Y098696
X09841Y099149
X099973Y100467
X105807Y101919
X105846Y101585
X10437Y101545
X104134Y101309
X103494Y101014
X104026Y10064
X101102Y100492
X101634Y099931
X102303Y099911
X103957Y099872
X104203Y099774
X103967Y099557
X108242Y096738
X109951Y098789
X109734Y098986
X109715Y09935
X110315Y09935
X108842Y099572
X110215Y099641
X109998Y099897
X108261Y100054
X109373Y100182
X108733Y100713
X110968Y101678
X111479Y101461
X111794Y101245
X113015Y099759
X111223Y099375
X117523Y09654
X117641Y097013
X118034Y097839
X115407Y0997
X11518Y100172
X118868Y10064
X118602Y100404
X118976Y100226
X119055Y099872
X119764Y099134
X118853Y098864
X118843Y098598
X120364Y098465
X120098Y09812
X121627Y097633
X123228Y098228
X123543Y098346
X121378Y098563
X123695Y098588
X125879Y098597
X12395Y098725
X125879Y098863
X125869Y099129
X124478Y101033
X12769Y104463
X127037Y103317
X126978Y102972
X126519Y101737
X128389Y101624
X128231Y101398
X128089Y101171
X12797Y10091
X127907Y10063
X1277Y099965
X126716Y099385
X126381Y099385
X126066Y099375
X126893Y099129
X126932Y098804
X12833Y098332
X128113Y097436
X127018Y097303
X129216Y097682
X130308Y098332
X129127Y098332
X128586Y098332
X128851Y098332
X130042Y098332
X130702Y098332
X130781Y099276
X129678Y099276
X129954Y099276
X130505Y099276
X129403Y099276
X129019Y099808
X129324Y099877
X12959Y099936
X129806Y100133
X129954Y100369
X128842Y100595
X130082Y100625
X130121Y100915
X13016Y101407
X129924Y101555
X129695Y101713
X128561Y101845
X129452Y10185
X129216Y101998
X128694Y102082
X128979Y102146
X129744Y102165
X128458Y105162
X131102Y104764
X133297Y102825
X131949Y102323
X132766Y101762
X133287Y101624
X131825Y100074
X131056Y099276
X132513Y098332
X132838Y098332
X132119Y098332
X13643Y097613
X133563Y101339
M30
