M48
;FILE_FORMAT=2:4
INCH,LZ
FMAT,2
ICI,OFF
;TYPE=PLATED
T1C.00984
T2C.02756
%
M72
G90
G93X0Y0
T1C.00984F0S0
X100984Y097569
X100728Y097598
X100472Y097628
X100138Y097667
X099872Y097697
X099616Y097736
X09936Y097776
X100844Y099626
X100574Y09967
X101268Y099803
X101007Y099833
X100741Y099867
X10047Y099906
X10248Y101073
X102362Y100846
X102352Y100482
X102283Y100236
X104636Y099311
X105427Y099159
X104646Y099055
X105526Y098913
X108882Y097978
X108744Y09846
X107042Y099572
X108095Y099582
X107396Y099582
X110249Y102475
X110446Y102318
X110594Y101058
X111437Y099882
X11128Y099685
X111506Y099518
X110841Y098647
X11061Y098258
X109639Y097938
X110103Y097131
X11145Y096772
X109847Y096561
X110869Y096555
X11145Y096511
X11024Y096502
X112788Y096511
X112793Y096776
X113896Y096954
X113886Y097229
X112715Y097308
X114245Y097387
X112227Y097854
X112232Y098568
X11393Y099306
X112612Y099523
X113907Y099557
X11276Y100261
X112937Y101935
X113433Y102165
X113187Y102254
X115323Y101496
X115594Y101417
X116061Y101245
X11646Y101112
X115761Y100123
X115318Y099385
X115279Y09907
X116361Y098834
X114924Y098774
X116607Y098755
X116844Y098666
X11641Y098578
X116824Y098391
X115544Y098361
X115544Y098086
X114437Y097874
X115229Y096968
X117395Y097406
X11894Y097475
X119245Y097524
X117139Y097534
X119038Y097761
X117149Y098528
X117532Y100566
X117277Y100615
X118103Y100763
X120309Y101502
X119734Y101329
X119931Y101152
X119665Y101083
X121693Y099793
X121289Y099341
X121014Y099232
X12029Y098726
X121243Y098253
X121713Y0981
X120728Y097805
X121115Y09779
X120869Y097091
X121529Y097091
X122158Y097416
X124048Y097593
X123084Y097918
X123681Y098012
X122303Y09813
X122021Y098135
X123976Y098199
X122894Y098533
X122372Y098543
X122638Y098543
X123957Y099114
X124216Y099788
X121949Y099862
X122215Y099941
X124296Y100537
X124177Y100822
X123504Y10125
X123809Y101339
X123262Y101433
X121919Y10187
X122175Y101919
X124193Y101988
X123819Y102264
X124196Y102515
X124266Y102811
X126663Y105246
X12565Y10497
X125768Y104744
X124764Y104675
X124774Y104203
X12439Y10378
X124469Y103268
X124452Y102042
X126775Y101993
X125623Y101934
X126725Y101402
X124806Y101393
X124521Y101383
X125211Y100911
X124954Y100595
X12521Y100576
X126017Y100418
X124668Y100241
X12454Y099946
X124845Y099119
X126597Y098489
X126292Y098489
X125899Y098332
X125407Y097682
X124718Y097593
X12893Y097387
X128379Y097387
X129206Y097387
X128655Y097387
X126912Y09846
X127405Y100005
X127916Y100202
X127592Y100861
X126981Y101412
X128113Y101767
X128005Y102052
X12831Y10216
X128979Y103017
X127717Y103327
X128979Y103341
X12891Y103725
X127953Y103829
X127549Y103868
X127464Y104158
X128025Y104552
X128349Y104631
X126988Y105315
X128036Y106068
X127362Y106152
X127986Y106413
X13144Y106865
X129993Y106727
X129403Y106717
X129422Y106393
X130781Y105448
X13145Y105408
X131115Y105369
X129432Y104916
X130534Y104906
X130446Y104621
X129688Y10406
X129708Y103745
X130388Y103736
X130453Y103445
X129718Y1028
X130181Y101718
X130475Y100526
X130761Y10033
X131036Y100192
X131233Y099965
X131519Y099857
X130229Y099276
X131332Y099276
X131607Y099276
X131765Y098637
X131765Y098332
X131765Y098026
X130859Y097387
X130308Y097387
X130032Y097387
X130584Y097387
X131686Y097387
X129757Y097387
X131135Y097387
X13141Y097387
X129481Y097387
X132513Y097387
X132237Y097387
X131962Y097387
X132788Y097387
X133061Y097421
X13334Y097426
X133615Y097426
X133888Y097431
X133969Y097702
X134235Y097771
X133133Y098332
X13393Y098617
X13393Y098893
X133871Y099198
X133556Y099257
X132992Y099272
X132434Y099276
X13271Y099276
X133271Y099276
X132158Y099276
X131883Y099276
X13249Y100108
X133445Y100384
X133868Y100512
X133593Y10065
X133833Y100842
X132618Y101417
X133862Y101423
X131963Y101856
X133986Y102815
X134085Y103425
X134065Y104459
X133025Y104552
X132769Y104641
X134498Y103799
X134882Y103209
X135325Y102746
X134685Y102717
X136351Y10158
X134606Y101093
X135082Y100969
X134783Y100846
X134636Y100433
X134833Y100138
X134744Y099537
X13518Y099532
X135896Y09874
X135659Y098504
X134931Y098425
X135374Y098415
X134777Y098154
X134757Y097899
X134531Y09778
T2C.02756F197S55
X132337Y104939
X132824Y105051
X132224Y105426
X132711Y105538
X132112Y105913
X132599Y106026
X131999Y1064
X132486Y106513
X131887Y106887
X132374Y107
M30
