M48
;FILE_FORMAT=2:4
INCH,LZ
FMAT,2
ICI,OFF
;TYPE=PLATED
T1C.00984
%
M72
G90
G93X0Y0
T1C.00984F0S0
X098839Y097835
X098376Y099154
X102954Y099843
X101772Y100463
X101575Y100935
X104606Y101693
X104793Y101447
X10561Y100556
X104026Y099754
X104306Y099739
X104153Y099536
X108287Y09939
X108671Y099882
X110354Y099892
X110098Y099902
X109301Y100212
X108868Y100586
X110068Y100743
X110059Y101147
X11503Y101417
X111978Y101137
X115069Y101122
X111978Y100743
X120374Y097963
X119124Y097982
X120659Y098031
X119045Y098376
X11872Y098415
X118671Y09876
X118337Y09876
X118967Y09877
X11624Y099237
X1181Y099345
X120817Y100197
X120472Y100305
X119045Y100453
X118996Y100709
X123199Y101191
X120886Y100502
X123337Y099646
X122205Y099459
X122293Y099203
X122392Y098898
X12124Y098189
X120935Y09811
X121309Y097864
X120965Y097795
X123406Y099931
X124016Y100197
X124193Y100443
X124114Y100719
X1244Y100748
X123465Y10125
X123789Y101289
X125463Y103051
X126968Y100497
X126584Y100408
X127677Y099267
X12808Y099011
X129153Y098322
X128887Y098322
X129714Y098322
X129429Y098322
X12995Y09846
X12869Y098479
X130049Y098715
X128641Y098735
X130098Y098981
X128641Y098991
X128651Y099247
X12875Y099818
X129753Y099828
X129606Y106511
X13249Y104488
X132234Y104419
X131122Y102717
X131407Y101806
X131909Y10122
X132087Y099557
X135157Y099867
X135561Y101452
X134587Y102165
X13377Y102224
M30
