M48
;FILE_FORMAT=2:4
INCH,LZ
FMAT,2
ICI,OFF
;TYPE=PLATED
T1C.00984
%
M72
G90
G93X0Y0
T1C.00984F0S0
X103484Y098012
X103203Y098263
X103124Y098519
X103839Y098602
X102057Y10065
X102042Y100911
X101599Y101
X101343Y101039
X101825Y101137
X102081Y101196
X104075Y098701
X104331Y098691
X104045Y098445
X10466Y098441
X104301Y098435
X104163Y098219
X104551Y098076
X104502Y097811
X110384Y097451
X10998Y097451
X110742Y097456
X110801Y09786
X11088Y098303
X111136Y099986
X110309Y100252
X110634Y100291
X10966Y100567
X109148Y100694
X108853Y100852
X108006Y101108
X109492Y101374
X111673Y100246
X112268Y098224
X11209Y096973
X117621Y097711
X117385Y0978
X118655Y100556
X118408Y100625
X120111Y100851
X120229Y100477
X119985Y100055
X119419Y099213
X12021Y09843
X125886Y10124
X121834Y10154
X125132Y103037
X125394Y103189
X124872Y105079
X126962Y100526
X126578Y100438
X128743Y099847
X12767Y099296
X128645Y099276
X128074Y09904
X128635Y099021
X128635Y098765
X128684Y098509
X129147Y098351
X129708Y098351
X128881Y098351
X129422Y098351
X129944Y098489
X130042Y098745
X130092Y099011
X129747Y099857
X131073Y103041
X130042Y106343
X13249Y104508
X132234Y104429
X131401Y101836
X131825Y101157
X131786Y099651
X135571Y09878
X135531Y099203
X135512Y099518
X134916Y099828
X134345Y10225
X134128Y102407
X133848Y103789
M30
